Coordinates
version=1
nRows=29
nColumns=24
inDegrees=yes

Units are S.I. units (second, meters, Newtons, ...)
Angles are in degrees.

endheader
time	pelvis_tilt	pelvis_list	pelvis_rotation	pelvis_tx	pelvis_ty	pelvis_tz	hip_flexion_r	hip_adduction_r	hip_rotation_r	knee_angle_r	ankle_angle_r	subtalar_angle_r	mtp_angle_r	hip_flexion_l	hip_adduction_l	hip_rotation_l	knee_angle_l	ankle_angle_l	subtalar_angle_l	mtp_angle_l	lumbar_extension	lumbar_bending	lumbar_rotation
      1.45000000	     67.16952848	      1.38777144	     -3.74843627	      0.53337187	      0.96503529	     -0.29822733	      6.68376978	    -15.47685834	     -6.60035073	    -71.69088084	    -25.91017959	      0.00000000	      0.00000000	     16.29248669	     -2.54244164	     18.47546186	    -10.67566246	    -42.97745345	      0.00000000	      0.00000000	      0.00000000	      0.00000000	      0.00000000
      1.46000000	     67.17299802	      1.38353512	     -3.74175328	      0.53337738	      0.96504361	     -0.29824138	      6.66912604	    -15.47231164	     -6.60455392	    -71.68092427	    -25.91973757	      0.00000000	      0.00000000	     16.29595810	     -2.54005524	     18.48025321	    -10.68279674	    -42.94941676	      0.00000000	      0.00000000	      0.00000000	      0.00000000	      0.00000000
      1.47000000	     67.17889889	      1.37643449	     -3.73374413	      0.53338813	      0.96504477	     -0.29825173	      6.65184946	    -15.46473758	     -6.60745137	    -71.67308774	    -25.92788453	      0.00000000	      0.00000000	     16.29591785	     -2.54011331	     18.49745988	    -10.68987006	    -42.89041325	      0.00000000	      0.00000000	      0.00000000	      0.00000000	      0.00000000
      1.48000000	     67.18597424	      1.36705057	     -3.72722429	      0.53340518	      0.96504048	     -0.29826193	      6.63630338	    -15.45550683	     -6.60696103	    -71.66861569	    -25.93386235	      0.00000000	      0.00000000	     16.29236653	     -2.54265338	     18.52932203	    -10.69200158	    -42.80608229	      0.00000000	      0.00000000	      0.00000000	      0.00000000	      0.00000000
      1.49000000	     67.19195732	      1.35773852	     -3.72627468	      0.53342107	      0.96502882	     -0.29828124	      6.62740571	    -15.44667424	     -6.60247889	    -71.66849466	    -25.93713516	      0.00000000	      0.00000000	     16.28683363	     -2.54660730	     18.57236174	    -10.68434448	    -42.71456399	      0.00000000	      0.00000000	      0.00000000	      0.00000000	      0.00000000
      1.50000000	     67.19350659	      1.35214844	     -3.73397187	      0.53342737	      0.96500293	     -0.29830422	      6.62914927	    -15.44175081	     -6.59485792	    -71.67267198	    -25.93759014	      0.00000000	      0.00000000	     16.28288307	     -2.55026453	     18.61548750	    -10.66408259	    -42.64699419	      0.00000000	      0.00000000	      0.00000000	      0.00000000	      0.00000000
      1.51000000	     67.18674621	      1.35434573	     -3.74930490	      0.53342612	      0.96497745	     -0.29830496	      6.64354100	    -15.44577391	     -6.58565074	    -71.67933536	    -25.93574303	      0.00000000	      0.00000000	     16.28581397	     -2.55186711	     18.64003833	    -10.63238374	    -42.64380475	      0.00000000	      0.00000000	      0.00000000	      0.00000000	      0.00000000
      1.52000000	     67.16834256	      1.36791068	     -3.76582144	      0.53343103	      0.96498797	     -0.29826128	      6.66980543	    -15.46345359	     -6.57646934	    -71.68478897	    -25.93286329	      0.00000000	      0.00000000	     16.30184260	     -2.54930570	     18.62282169	    -10.59505375	    -42.74606579	      0.00000000	      0.00000000	      0.00000000	      0.00000000	      0.00000000
      1.53000000	     67.13726007	      1.39502435	     -3.77423506	      0.53345521	      0.96503160	     -0.29819897	      6.70371339	    -15.49541339	     -6.56912095	    -71.68433557	    -25.93092639	      0.00000000	      0.00000000	     16.33746357	     -2.53853190	     18.54258145	    -10.56078192	    -42.98261010	      0.00000000	      0.00000000	      0.00000000	      0.00000000	      0.00000000
      1.54000000	     67.09733691	      1.43431913	     -3.76792897	      0.53349380	      0.96504592	     -0.29818841	      6.73806781	    -15.53532601	     -6.56577737	    -71.67401883	    -25.93220830	      0.00000000	      0.00000000	     16.39880858	     -2.51207169	     18.38904662	    -10.53718122	    -43.35569092	      0.00000000	      0.00000000	      0.00000000	      0.00000000	      0.00000000
      1.55000000	     67.05857711	      1.47812852	     -3.74770485	      0.53350676	      0.96499897	     -0.29825120	      6.76504765	    -15.57147022	     -6.56809306	    -71.65261474	    -25.93844785	      0.00000000	      0.00000000	     16.48919802	     -2.46104010	     18.17192665	    -10.52679821	    -43.82991283	      0.00000000	      0.00000000	      0.00000000	      0.00000000	      0.00000000
      1.56000000	     67.03329463	      1.51371482	     -3.72208605	      0.53342327	      0.96497087	     -0.29828246	      6.77932528	    -15.59308142	     -6.57537272	    -71.62297019	    -25.94978786	      0.00000000	      0.00000000	     16.60296143	     -2.38366030	     17.92559010	    -10.52625958	    -44.33025565	      0.00000000	      0.00000000	      0.00000000	      0.00000000	      0.00000000
      1.57000000	     67.02726871	      1.53155349	     -3.70204575	      0.53321550	      0.96506083	     -0.29816189	      6.78001214	    -15.59737462	     -6.58319429	    -71.59167434	    -25.96391707	      0.00000000	      0.00000000	     16.71792265	     -2.29715689	     17.70490416	    -10.52963009	    -44.75405057	      0.00000000	      0.00000000	      0.00000000	      0.00000000	      0.00000000
      1.58000000	     67.03443407	      1.53393789	     -3.69430386	      0.53299581	      0.96519738	     -0.29798385	      6.76986690	    -15.59078307	     -6.58459752	    -71.56676615	    -25.97600366	      0.00000000	      0.00000000	     16.79661393	     -2.23936915	     17.57004326	    -10.53196279	    -44.99773589	      0.00000000	      0.00000000	      0.00000000	      0.00000000	      0.00000000
      1.59000000	     67.04537316	      1.52958104	     -3.69983719	      0.53294842	      0.96520313	     -0.29797914	      6.75182979	    -15.58202212	     -6.57447238	    -71.55438629	    -25.97982805	      0.00000000	      0.00000000	     16.80609280	     -2.24604116	     17.56367697	    -10.52722241	    -44.99194073	      0.00000000	      0.00000000	      0.00000000	      0.00000000	      0.00000000
      1.60000000	     67.06127046	      1.51840601	     -3.71699520	      0.53311060	      0.96508842	     -0.29813653	      6.72559754	    -15.57334733	     -6.55414698	    -71.55589610	    -25.96980644	      0.00000000	      0.00000000	     16.74293677	     -2.31935411	     17.69137786	    -10.50527431	    -44.73001469	      0.00000000	      0.00000000	      0.00000000	      0.00000000	      0.00000000
      1.61000000	     67.09118131	      1.49200693	     -3.74177761	      0.53333216	      0.96502453	     -0.29822324	      6.68763434	    -15.55916459	     -6.53181540	    -71.56691338	    -25.94312941	      0.00000000	      0.00000000	     16.63369388	     -2.42640148	     17.91781018	    -10.45913920	    -44.27364472	      0.00000000	      0.00000000	      0.00000000	      0.00000000	      0.00000000
      1.62000000	     67.13714646	      1.44894183	     -3.76561683	      0.53347097	      0.96504857	     -0.29817000	      6.63482394	    -15.53321824	     -6.51788293	    -71.57905121	    -25.90153211	      0.00000000	      0.00000000	     16.51365449	     -2.52855251	     18.18141294	    -10.39549889	    -43.73130398	      0.00000000	      0.00000000	      0.00000000	      0.00000000	      0.00000000
      1.63000000	     67.19091400	      1.39925430	     -3.77811498	      0.53351361	      0.96506452	     -0.29810782	      6.56869837	    -15.49614145	     -6.51884378	    -71.58370029	    -25.85263442	      0.00000000	      0.00000000	     16.41302486	     -2.60433979	     18.41823916	    -10.33197817	    -43.22121149	      0.00000000	      0.00000000	      0.00000000	      0.00000000	      0.00000000
      1.64000000	     67.24168288	      1.35563355	     -3.77413217	      0.53351082	      0.96504658	     -0.29811770	      6.49749552	    -15.45563095	     -6.53390287	    -71.57584932	    -25.81066710	      0.00000000	      0.00000000	     16.35493497	     -2.65029230	     18.58268777	    -10.28460643	    -42.83606329	      0.00000000	      0.00000000	      0.00000000	      0.00000000	      0.00000000
      1.65000000	     67.27987694	      1.32567567	     -3.75727829	      0.53349187	      0.96504963	     -0.29815717	      6.43542346	    -15.42055634	     -6.55510801	    -71.55596403	    -25.79597446	      0.00000000	      0.00000000	     16.35208807	     -2.67249185	     18.65755655	    -10.25993283	    -42.62181181	      0.00000000	      0.00000000	      0.00000000	      0.00000000	      0.00000000
      1.66000000	     67.29612510	      1.31058968	     -3.73680720	      0.53346184	      0.96508194	     -0.29817417	      6.39945695	    -15.39547437	     -6.56945263	    -71.52926636	    -25.83259726	      0.00000000	      0.00000000	     16.40205828	     -2.68037893	     18.65251448	    -10.25567985	    -42.57436795	      0.00000000	      0.00000000	      0.00000000	      0.00000000	      0.00000000
      1.67000000	     67.28347159	      1.30688858	     -3.72226686	      0.53343360	      0.96509091	     -0.29817236	      6.40426631	    -15.37917503	     -6.56205632	    -71.50320460	    -25.94371299	      0.00000000	      0.00000000	     16.48997646	     -2.68371561	     18.59484372	    -10.26435842	    -42.65110145	      0.00000000	      0.00000000	      0.00000000	      0.00000000	      0.00000000
      1.68000000	     67.24250163	      1.30805117	     -3.72017668	      0.53342736	      0.96505731	     -0.29816364	      6.45682097	    -15.36655922	     -6.52028357	    -71.48458494	    -26.14546979	      0.00000000	      0.00000000	     16.59776491	     -2.69036774	     18.51746635	    -10.27634424	    -42.79024755	      0.00000000	      0.00000000	      0.00000000	      0.00000000	      0.00000000
      1.69000000	     67.18202036	      1.30706258	     -3.73311833	      0.53344535	      0.96500875	     -0.29814404	      6.55292427	    -15.35148181	     -6.43826658	    -71.47751360	    -26.44059943	      0.00000000	      0.00000000	     16.71047675	     -2.70532060	     18.44834616	    -10.28346932	    -42.93078797	      0.00000000	      0.00000000	      0.00000000	      0.00000000	      0.00000000
      1.70000000	     67.11484319	      1.29934537	     -3.75954103	      0.53346961	      0.96496266	     -0.29812521	      6.67772240	    -15.32946940	     -6.31993624	    -71.48237689	    -26.81387127	      0.00000000	      0.00000000	     16.81647649	     -2.73133849	     18.40398182	    -10.28268614	    -43.02720755	      0.00000000	      0.00000000	      0.00000000	      0.00000000	      0.00000000
      1.71000000	     67.05381211	      1.28295443	     -3.79315660	      0.53349129	      0.96492845	     -0.29810220	      6.81016390	    -15.30038375	     -6.17850521	    -71.49569971	    -27.23131792	      0.00000000	      0.00000000	     16.90549621	     -2.76953976	     18.38796693	    -10.27726439	    -43.05650702	      0.00000000	      0.00000000	      0.00000000	      0.00000000	      0.00000000
      1.72000000	     67.00897890	      1.25851832	     -3.82528651	      0.53352081	      0.96490833	     -0.29805195	      6.92763618	    -15.26789506	     -6.03418334	    -71.51159274	    -27.64393488	      0.00000000	      0.00000000	     16.96833605	     -2.81851442	     18.39386383	    -10.27442849	    -43.01773217	      0.00000000	      0.00000000	      0.00000000	      0.00000000	      0.00000000
      1.73000000	     66.98618234	      1.23013018	     -3.84999303	      0.53356294	      0.96487754	     -0.29801083	      7.00922707	    -15.23579553	     -5.91105473	    -71.52431258	    -27.99566291	      0.00000000	      0.00000000	     16.99896852	     -2.87281719	     18.41055384	    -10.28074574	    -42.92620935	      0.00000000	      0.00000000	      0.00000000	      0.00000000	      0.00000000
